<svg xmlns="http://www.w3.org/2000/svg" viewBox="0 0 800 260" width="800" height="260" xmlns:c2pa="http://c2pa.org/manifest"><metadata><c2pa:manifest>AAAWgmp1bWIAAAAeanVtZGMycGEAEQAQgAAAqgA4m3EDYzJwYQAAABZcanVtYgAAAEdqdW1kYzJtYQARABCAAACqADibcQN1cm46YzJwYTphMzA3NzU5ZS1iNWI4LTQ1ZDMtOWJhMC1mYzM2ZTJiNzk1NGIAAAADl2p1bWIAAAApanVtZGMyYXMAEQAQgAAAqgA4m3EDYzJwYS5hc3NlcnRpb25zAAAAALxqdW1iAAAARGp1bWRjYm9yABEAEIAAAKoAOJtxE2MycGEuaW5ncmVkaWVudC52MwAAAAAYYzJzaMlvtbipqArYyUsdBUfGu9sAAABwY2JvcqNpZGM6Zm9ybWF0bWltYWdlL3N2Zyt4bWxqaW5zdGFuY2VJRHgseG1wOmlpZDo1N2Y1OWViZS0zYmJlLTRmMTQtYTUwOS04NWU1OTdjNDMwNmNscmVsYXRpb25zaGlwaHBhcmVudE9mAAAB4mp1bWIAAABBanVtZGNib3IAEQAQgAAAqgA4m3ETYzJwYS5hY3Rpb25zLnYyAAAAABhjMnNopkFf2TFtXa9ZkZm83WRMIAAAAZljYm9yomdhY3Rpb25zgqJmYWN0aW9ua2MycGEub3BlbmVkanBhcmFtZXRlcnOha2luZ3JlZGllbnRzgaJjdXJseC1zZWxmI2p1bWJmPWMycGEuYXNzZXJ0aW9ucy9jMnBhLmluZ3JlZGllbnQudjNkaGFzaFggUs31BELQ0JQn/oglWD8r+Kfs4h0ktMKpwJnTNxQgqR2kZmFjdGlvbngdY29tLmFudGhyb3BpYy5jbGF1ZGUucHJvdmlkZWRqcGFyYW1ldGVyc6F4H2NvbS5hbnRocm9waWMub3JpZ2luLWNvbmZpZGVuY2VndW5rbm93bmtkZXNjcmlwdGlvbnhmQ2xhdWRlIHByb3ZpZGVkIHRoaXMgZmlsZSBhdCB0aGUgcmVxdWVzdCBvZiBhIHVzZXIgYW5kIG1heSBoYXZlIGNyZWF0ZWQgb3IgbW9kaWZpZWQgdGhlIGZpbGUgY29udGVudHMubXNvZnR3YXJlQWdlbnShZG5hbWVmQ2xhdWRlcmFsbEFjdGlvbnNJbmNsdWRlZPUAAADIanVtYgAAAEBqdW1kY2JvcgARABCAAACqADibcRNjMnBhLmhhc2guZGF0YQAAAAAYYzJzaGtJcmMenS68Ctsa7lfh2MgAAACAY2JvcqVjYWxnZnNoYTI1NmNwYWRNAAAAAAAAAAAAAAAAAGRoYXNoWCCTSN4WVz1IJWPxqHiAVaBtJatD5gbwvCTj3rbg2ynCU2RuYW1lbmp1bWJmIG1hbmlmZXN0amV4Y2x1c2lvbnOBomVzdGFydBiWZmxlbmd0aBkeBAAAAj5qdW1iAAAAJ2p1bWRjMmNsABEAEIAAAKoAOJtxA2MycGEuY2xhaW0udjIAAAACD2Nib3KlY2FsZ2ZzaGEyNTZpc2lnbmF0dXJleE1zZWxmI2p1bWJmPS9jMnBhL3VybjpjMnBhOmEzMDc3NTllLWI1YjgtNDVkMy05YmEwLWZjMzZlMmI3OTU0Yi9jMnBhLnNpZ25hdHVyZWppbnN0YW5jZUlEeCx4bXA6aWlkOjkzMDI1NzMzLTJhYWQtNGQ5ZS1iMDY0LTdiNWMzMmJiYWQ5Y3JjcmVhdGVkX2Fzc2VydGlvbnODomN1cmx4LXNlbGYjanVtYmY9YzJwYS5hc3NlcnRpb25zL2MycGEuaW5ncmVkaWVudC52M2RoYXNoWCBSzfUEQtDQlCf+iCVYPyv4p+ziHSS0wqnAmdM3FCCpHaJjdXJseCpzZWxmI2p1bWJmPWMycGEuYXNzZXJ0aW9ucy9jMnBhLmFjdGlvbnMudjJkaGFzaFggAtM6vqqal4/uWNqV4azzJZTupJG1be5Bn0Mm4/6Iw8KiY3VybHgpc2VsZiNqdW1iZj1jMnBhLmFzc2VydGlvbnMvYzJwYS5oYXNoLmRhdGFkaGFzaFgg2bfw2YEaZIo2/lx8RDC1ja49qQJWzyt8xMamYlBEWzt0Y2xhaW1fZ2VuZXJhdG9yX2luZm+jZG5hbWVvQW50aHJvcGljIEZpbGVzZ3ZlcnNpb25lMS4wLjBrc3BlY1ZlcnNpb25lMi40LjAAABA4anVtYgAAAChqdW1kYzJjcwARABCAAACqADibcQNjMnBhLnNpZ25hdHVyZQAAABAIY2JvctKEWQISogEmGCFZAgowggIGMIIBjaADAgECAhRA5aAK7sI50L64g/oGQgU9Z1UTADAKBggqhkjOPQQDAzBJMRcwFQYDVQQKEw5BbnRocm9waWMsIFBCQzEuMCwGA1UEAxMlQW50aHJvcGljIENvbnRlbnQgQ3JlZGVudGlhbHMgUm9vdCBDQTAeFw0yNjA4MDcxODQzNTZaFw0yODA4MDYxOTQzNTZaMEQxFzAVBgNVBAoTDkFudGhyb3BpYywgUEJDMSkwJwYDVQQDEyBBbnRocm9waWMgQ2xhdWRlIENvbnRlbnQgU2lnbmluZzBZMBMGByqGSM49AgEGCCqGSM49AwEHA0IABJh6CmvLUBgFFNU0vUKlOVtE6djd17L5SuwX0LemFisBM3dkd/3cyjxFA3Qo5S46fX0/ihY0VZ7mfb9KF703t5OjWDBWMA4GA1UdDwEB/wQEAwIHgDAVBgNVHSUEDjAMBgorBgEEAYPoXgIBMAwGA1UdEwEB/wQCMAAwHwYDVR0jBBgwFoAUzlHiBIFOZFsj+OPEz5o+nMHXXMIwCgYIKoZIzj0EAwMDZwAwZAIwMXMdFJ4BetLLVY7ORuE9noqbbAZOZn/aArXyTwFAZfKrPzxF2vPoJNf1+UCdg1XGAjBwX1zd9WGqYkqmL5SFqw1QySjr1zJfpJM9+1rdDwSPLMOPOjKuiXjoU/pUUeG9RwmhY3BhZFkNngAAAAAAAAAAAAAAAAAAAAAAAAAAAAAAAAAAAAAAAAAAAAAAAAAAAAAAAAAAAAAAAAAAAAAAAAAAAAAAAAAAAAAAAAAAAAAAAAAAAAAAAAAAAAAAAAAAAAAAAAAAAAAAAAAAAAAAAAAAAAAAAAAAAAAAAAAAAAAAAAAAAAAAAAAAAAAAAAAAAAAAAAAAAAAAAAAAAAAAAAAAAAAAAAAAAAAAAAAAAAAAAAAAAAAAAAAAAAAAAAAAAAAAAAAAAAAAAAAAAAAAAAAAAAAAAAAAAAAAAAAAAAAAAAAAAAAAAAAAAAAAAAAAAAAAAAAAAAAAAAAAAAAAAAAAAAAAAAAAAAAAAAAAAAAAAAAAAAAAAAAAAAAAAAAAAAAAAAAAAAAAAAAAAAAAAAAAAAAAAAAAAAAAAAAAAAAAAAAAAAAAAAAAAAAAAAAAAAAAAAAAAAAAAAAAAAAAAAAAAAAAAAAAAAAAAAAAAAAAAAAAAAAAAAAAAAAAAAAAAAAAAAAAAAAAAAAAAAAAAAAAAAAAAAAAAAAAAAAAAAAAAAAAAAAAAAAAAAAAAAAAAAAAAAAAAAAAAAAAAAAAAAAAAAAAAAAAAAAAAAAAAAAAAAAAAAAAAAAAAAAAAAAAAAAAAAAAAAAAAAAAAAAAAAAAAAAAAAAAAAAAAAAAAAAAAAAAAAAAAAAAAAAAAAAAAAAAAAAAAAAAAAAAAAAAAAAAAAAAAAAAAAAAAAAAAAAAAAAAAAAAAAAAAAAAAAAAAAAAAAAAAAAAAAAAAAAAAAAAAAAAAAAAAAAAAAAAAAAAAAAAAAAAAAAAAAAAAAAAAAAAAAAAAAAAAAAAAAAAAAAAAAAAAAAAAAAAAAAAAAAAAAAAAAAAAAAAAAAAAAAAAAAAAAAAAAAAAAAAAAAAAAAAAAAAAAAAAAAAAAAAAAAAAAAAAAAAAAAAAAAAAAAAAAAAAAAAAAAAAAAAAAAAAAAAAAAAAAAAAAAAAAAAAAAAAAAAAAAAAAAAAAAAAAAAAAAAAAAAAAAAAAAAAAAAAAAAAAAAAAAAAAAAAAAAAAAAAAAAAAAAAAAAAAAAAAAAAAAAAAAAAAAAAAAAAAAAAAAAAAAAAAAAAAAAAAAAAAAAAAAAAAAAAAAAAAAAAAAAAAAAAAAAAAAAAAAAAAAAAAAAAAAAAAAAAAAAAAAAAAAAAAAAAAAAAAAAAAAAAAAAAAAAAAAAAAAAAAAAAAAAAAAAAAAAAAAAAAAAAAAAAAAAAAAAAAAAAAAAAAAAAAAAAAAAAAAAAAAAAAAAAAAAAAAAAAAAAAAAAAAAAAAAAAAAAAAAAAAAAAAAAAAAAAAAAAAAAAAAAAAAAAAAAAAAAAAAAAAAAAAAAAAAAAAAAAAAAAAAAAAAAAAAAAAAAAAAAAAAAAAAAAAAAAAAAAAAAAAAAAAAAAAAAAAAAAAAAAAAAAAAAAAAAAAAAAAAAAAAAAAAAAAAAAAAAAAAAAAAAAAAAAAAAAAAAAAAAAAAAAAAAAAAAAAAAAAAAAAAAAAAAAAAAAAAAAAAAAAAAAAAAAAAAAAAAAAAAAAAAAAAAAAAAAAAAAAAAAAAAAAAAAAAAAAAAAAAAAAAAAAAAAAAAAAAAAAAAAAAAAAAAAAAAAAAAAAAAAAAAAAAAAAAAAAAAAAAAAAAAAAAAAAAAAAAAAAAAAAAAAAAAAAAAAAAAAAAAAAAAAAAAAAAAAAAAAAAAAAAAAAAAAAAAAAAAAAAAAAAAAAAAAAAAAAAAAAAAAAAAAAAAAAAAAAAAAAAAAAAAAAAAAAAAAAAAAAAAAAAAAAAAAAAAAAAAAAAAAAAAAAAAAAAAAAAAAAAAAAAAAAAAAAAAAAAAAAAAAAAAAAAAAAAAAAAAAAAAAAAAAAAAAAAAAAAAAAAAAAAAAAAAAAAAAAAAAAAAAAAAAAAAAAAAAAAAAAAAAAAAAAAAAAAAAAAAAAAAAAAAAAAAAAAAAAAAAAAAAAAAAAAAAAAAAAAAAAAAAAAAAAAAAAAAAAAAAAAAAAAAAAAAAAAAAAAAAAAAAAAAAAAAAAAAAAAAAAAAAAAAAAAAAAAAAAAAAAAAAAAAAAAAAAAAAAAAAAAAAAAAAAAAAAAAAAAAAAAAAAAAAAAAAAAAAAAAAAAAAAAAAAAAAAAAAAAAAAAAAAAAAAAAAAAAAAAAAAAAAAAAAAAAAAAAAAAAAAAAAAAAAAAAAAAAAAAAAAAAAAAAAAAAAAAAAAAAAAAAAAAAAAAAAAAAAAAAAAAAAAAAAAAAAAAAAAAAAAAAAAAAAAAAAAAAAAAAAAAAAAAAAAAAAAAAAAAAAAAAAAAAAAAAAAAAAAAAAAAAAAAAAAAAAAAAAAAAAAAAAAAAAAAAAAAAAAAAAAAAAAAAAAAAAAAAAAAAAAAAAAAAAAAAAAAAAAAAAAAAAAAAAAAAAAAAAAAAAAAAAAAAAAAAAAAAAAAAAAAAAAAAAAAAAAAAAAAAAAAAAAAAAAAAAAAAAAAAAAAAAAAAAAAAAAAAAAAAAAAAAAAAAAAAAAAAAAAAAAAAAAAAAAAAAAAAAAAAAAAAAAAAAAAAAAAAAAAAAAAAAAAAAAAAAAAAAAAAAAAAAAAAAAAAAAAAAAAAAAAAAAAAAAAAAAAAAAAAAAAAAAAAAAAAAAAAAAAAAAAAAAAAAAAAAAAAAAAAAAAAAAAAAAAAAAAAAAAAAAAAAAAAAAAAAAAAAAAAAAAAAAAAAAAAAAAAAAAAAAAAAAAAAAAAAAAAAAAAAAAAAAAAAAAAAAAAAAAAAAAAAAAAAAAAAAAAAAAAAAAAAAAAAAAAAAAAAAAAAAAAAAAAAAAAAAAAAAAAAAAAAAAAAAAAAAAAAAAAAAAAAAAAAAAAAAAAAAAAAAAAAAAAAAAAAAAAAAAAAAAAAAAAAAAAAAAAAAAAAAAAAAAAAAAAAAAAAAAAAAAAAAAAAAAAAAAAAAAAAAAAAAAAAAAAAAAAAAAAAAAAAAAAAAAAAAAAAAAAAAAAAAAAAAAAAAAAAAAAAAAAAAAAAAAAAAAAAAAAAAAAAAAAAAAAAAAAAAAAAAAAAAAAAAAAAAAAAAAAAAAAAAAAAAAAAAAAAAAAAAAAAAAAAAAAAAAAAAAAAAAAAAAAAAAAAAAAAAAAAAAAAAAAAAAAAAAAAAAAAAAAAAAAAAAAAAAAAAAAAAAAAAAAAAAAAAAAAAAAAAAAAAAAAAAAAAAAAAAAAAAAAAAAAAAAAAAAAAAAAAAAAAAAAAAAAAAAAAAAAAAAAAAAAAAAAAAAAAAAAAAAAAAAAAAAAAAAAAAAAAAAAAAAAAAAAAAAAAAAAAAAAAAAAAAAAAAAAAAAAAAAAAAAAAAAAAAAAAAAAAAAAAAAAAAAAAAAAAAAAAAAAAAAAAAAAAAAAAAAAAAAAAAAAAAAAAAAAAAAAAAAAAAAAAAAAAAAAAAAAAAAAAAAAAAAAAAAAAAAAAAAAAAAAAAAAAAAAAAAAAAAAAAAAAAAAAAAAAAAAAAAAAAAAAAAAAAAAAAAAAAAAAAAAAAAAAAAAAAAAAAAAAAAAAAAAAAAAAAAAAAAAAAAAAAAAAAAAAAAAAAAAAAAAAAAAAAAAAAAAAAAAAAAAAAAAAAAAAAAAAAAAAAAAAAAAAAAAAAAAAAAAAAAAAAAAAAAAAAAAAAAAAAAAAAAAAAAAAAAAAAAAAAAAAAAAAAAAAAAAAAAAAAAAAAAAAAAAAAAAAAAAAAAAAAAAAAAAAAAAAAAAAAAAAAAAAAAAAAAAAAAAAAAAAAAAAAAAAAAAAAAAAAAAAAAAAAAAAAAAAAAAAAAAAAAAAAAAAAAAAAAAAAAAAAAAAAAAAAAAAAAAAAAAAAAAAAAAAAAAAAAAAAAAAAAAAAAAAAAAAAAAAAAAAAAAAAAAAAAAAAAAAAAAAAAAAAAAAAAAAAAAAAAAAAAAAAAAAAAAAAAAAAAAAAAAAAAAAAAAAAAAAAAAAAAAAAAAAAAAAAAAAAAAAAAAAAAAAAAAAAAAAAAAAAAAAAAAAAAAAAAAAAAAAAAAAAAAAAAAAAAAAAAAAAAAAAAAAAAAAAAAAAAAAAAAAAAAAAAAAAAAAAAAAAAAAAAAAAAAAAAAAAAAAAAAAAAAAAAAAAAAAAAAAAAAAAAAAAAAAAAAAAAAAAAAAAAAAAAAAAAAAAAAAAAAAAAAAAAAAAAAAAAAAAAAAAAAAAAAAAAAAAAAAAAAAAAAAAAAAAAAAAAAAAAAAAAAAAAAAAAAAAAAAAAAAAAAAAAAAAAAAAAAAAAAAAAAAAAAAAAAAAAAAAAAAAAAAAAAAAAAAAAAAAAAAAAAAAAAAAAAAAAAAAAAAAAAAAAAAAAAAAAAAAAAAAAAAAAAAAAAAAAAAAAAAAAAAAAAAAAAAAAAAAAAAAAAAAAAAAAAAAAAAAAAAAAAAAAAAAAAAAAAAAAAAAAAAAAAAAAAAAAAAAAAAAAAAAAAAAAAAAAAAAAAAAAAAAAAAAAAAAAAAAAAAAAAAAAAAAAAAAAAAAAAAAAAAAAAAAAAAAAAAAAAAAAAAAAAAAAAAAAAAAAAAAAAAAAAAAAAAAAAAAAAAAAAAAAAAAAAAAAAAAAAAAAAAAAAAAAAAAAAAAAAAAAAAAAAAAAAAAAAAAAAAAAAAAAAAAAAAAAAAAAAAAAPZYQOu2zQP9TVQPwO3QlQVYnATywqAigQ0LuMcyhBOlCNyfNLpkdUvSiwsfv2SiQyzflWEioImefHBjSKy0eeU1Sco=</c2pa:manifest></metadata>
<defs><path id="fa" d="M6 0h3v3h-3zM24 0h3v3h-3zM9 3h3v3h-3zM21 3h3v3h-3zM6 6h3v3h-3zM9 6h3v3h-3zM12 6h3v3h-3zM15 6h3v3h-3zM18 6h3v3h-3zM21 6h3v3h-3zM24 6h3v3h-3zM3 9h3v3h-3zM6 9h3v3h-3zM12 9h3v3h-3zM15 9h3v3h-3zM18 9h3v3h-3zM24 9h3v3h-3zM27 9h3v3h-3zM0 12h3v3h-3zM3 12h3v3h-3zM6 12h3v3h-3zM9 12h3v3h-3zM12 12h3v3h-3zM15 12h3v3h-3zM18 12h3v3h-3zM21 12h3v3h-3zM24 12h3v3h-3zM27 12h3v3h-3zM30 12h3v3h-3zM0 15h3v3h-3zM6 15h3v3h-3zM9 15h3v3h-3zM12 15h3v3h-3zM15 15h3v3h-3zM18 15h3v3h-3zM21 15h3v3h-3zM24 15h3v3h-3zM30 15h3v3h-3zM0 18h3v3h-3zM6 18h3v3h-3zM24 18h3v3h-3zM30 18h3v3h-3zM9 21h3v3h-3zM12 21h3v3h-3zM18 21h3v3h-3zM21 21h3v3h-3z"/><path id="fb" d="M6 0h3v3h-3zM24 0h3v3h-3zM0 3h3v3h-3zM9 3h3v3h-3zM21 3h3v3h-3zM30 3h3v3h-3zM0 6h3v3h-3zM6 6h3v3h-3zM9 6h3v3h-3zM12 6h3v3h-3zM15 6h3v3h-3zM18 6h3v3h-3zM21 6h3v3h-3zM24 6h3v3h-3zM30 6h3v3h-3zM0 9h3v3h-3zM3 9h3v3h-3zM6 9h3v3h-3zM12 9h3v3h-3zM15 9h3v3h-3zM18 9h3v3h-3zM24 9h3v3h-3zM27 9h3v3h-3zM30 9h3v3h-3zM0 12h3v3h-3zM3 12h3v3h-3zM6 12h3v3h-3zM9 12h3v3h-3zM12 12h3v3h-3zM15 12h3v3h-3zM18 12h3v3h-3zM21 12h3v3h-3zM24 12h3v3h-3zM27 12h3v3h-3zM30 12h3v3h-3zM3 15h3v3h-3zM6 15h3v3h-3zM9 15h3v3h-3zM12 15h3v3h-3zM15 15h3v3h-3zM18 15h3v3h-3zM21 15h3v3h-3zM24 15h3v3h-3zM27 15h3v3h-3zM6 18h3v3h-3zM24 18h3v3h-3zM3 21h3v3h-3zM27 21h3v3h-3z"/></defs>
<style>
text{font-family:'Courier New',monospace;font-weight:bold}
.st{fill:#fff;animation:tw 3s infinite}
@keyframes tw{0%,100%{opacity:.15}50%{opacity:1}}
.fa{animation:fa .9s steps(1) infinite}.fb{animation:fb .9s steps(1) infinite}
@keyframes fa{0%{opacity:1}50%{opacity:0}}@keyframes fb{0%{opacity:0}50%{opacity:1}}
.player{animation:ship 28.0s linear infinite}
@keyframes fleet{0.000%{transform:translate(0px,0px);opacity:1}21.429%{transform:translate(110px,0px);opacity:1}23.571%{transform:translate(110px,8px);opacity:1}46.429%{transform:translate(0px,8px);opacity:1}48.571%{transform:translate(0px,16px);opacity:1}69.643%{transform:translate(110px,16px);opacity:1}71.786%{transform:translate(110px,24px);opacity:1}96.429%{transform:translate(0px,24px);opacity:1}97.857%{transform:translate(0px,24px);opacity:0}97.893%{transform:translate(0px,0px);opacity:0}99.643%{transform:translate(0px,0px);opacity:1}100.000%{transform:translate(0px,0px);opacity:1}}
.fleet{animation:fleet 28.0s linear infinite}
@keyframes k1_5{0.000%{opacity:1}65.801%{opacity:1}65.836%{opacity:0}97.857%{opacity:0}97.893%{opacity:1}100.000%{opacity:1}}
@keyframes k2_3{0.000%{opacity:1}83.620%{opacity:1}83.656%{opacity:0}97.857%{opacity:0}97.893%{opacity:1}100.000%{opacity:1}}
@keyframes k2_4{0.000%{opacity:1}77.549%{opacity:1}77.585%{opacity:0}97.857%{opacity:0}97.893%{opacity:1}100.000%{opacity:1}}
@keyframes k2_5{0.000%{opacity:1}47.310%{opacity:1}47.346%{opacity:0}97.857%{opacity:0}97.893%{opacity:1}100.000%{opacity:1}}
@keyframes k2_6{0.000%{opacity:1}53.338%{opacity:1}53.374%{opacity:0}97.857%{opacity:0}97.893%{opacity:1}100.000%{opacity:1}}
@keyframes k2_7{0.000%{opacity:1}29.128%{opacity:1}29.164%{opacity:0}97.857%{opacity:0}97.893%{opacity:1}100.000%{opacity:1}}
@keyframes k2_8{0.000%{opacity:1}59.410%{opacity:1}59.445%{opacity:0}97.857%{opacity:0}97.893%{opacity:1}100.000%{opacity:1}}
@keyframes k3_2{0.000%{opacity:1}71.178%{opacity:1}71.214%{opacity:0}97.857%{opacity:0}97.893%{opacity:1}100.000%{opacity:1}}
@keyframes k3_3{0.000%{opacity:1}40.951%{opacity:1}40.987%{opacity:0}97.857%{opacity:0}97.893%{opacity:1}100.000%{opacity:1}}
@keyframes k3_4{0.000%{opacity:1}4.598%{opacity:1}4.633%{opacity:0}97.857%{opacity:0}97.893%{opacity:1}100.000%{opacity:1}}
@keyframes k3_5{0.000%{opacity:1}34.880%{opacity:1}34.915%{opacity:0}97.857%{opacity:0}97.893%{opacity:1}100.000%{opacity:1}}
@keyframes k3_6{0.000%{opacity:1}10.669%{opacity:1}10.705%{opacity:0}97.857%{opacity:0}97.893%{opacity:1}100.000%{opacity:1}}
@keyframes k3_7{0.000%{opacity:1}16.741%{opacity:1}16.776%{opacity:0}97.857%{opacity:0}97.893%{opacity:1}100.000%{opacity:1}}
@keyframes k3_8{0.000%{opacity:1}22.764%{opacity:1}22.800%{opacity:0}97.857%{opacity:0}97.893%{opacity:1}100.000%{opacity:1}}
@keyframes ship{0.000%{transform:translate(382px,225px);animation-timing-function:ease-in-out}3.393%{transform:translate(340.3px,225px);animation-timing-function:ease-in-out}5.000%{transform:translate(340.3px,225px);animation-timing-function:ease-in-out}9.464%{transform:translate(495.5px,225px);animation-timing-function:ease-in-out}11.071%{transform:translate(495.5px,225px);animation-timing-function:ease-in-out}15.536%{transform:translate(588.6px,225px);animation-timing-function:ease-in-out}17.143%{transform:translate(588.6px,225px);animation-timing-function:ease-in-out}21.607%{transform:translate(674.5px,225px);animation-timing-function:ease-in-out}23.214%{transform:translate(674.5px,225px);animation-timing-function:ease-in-out}27.679%{transform:translate(585.6px,225px);animation-timing-function:ease-in-out}29.286%{transform:translate(585.6px,225px);animation-timing-function:ease-in-out}33.750%{transform:translate(433.9px,225px);animation-timing-function:ease-in-out}35.357%{transform:translate(433.9px,225px);animation-timing-function:ease-in-out}39.821%{transform:translate(280.7px,225px);animation-timing-function:ease-in-out}41.429%{transform:translate(280.7px,225px);animation-timing-function:ease-in-out}45.893%{transform:translate(378.5px,225px);animation-timing-function:ease-in-out}47.500%{transform:translate(378.5px,225px);animation-timing-function:ease-in-out}51.964%{transform:translate(465.6px,225px);animation-timing-function:ease-in-out}53.571%{transform:translate(465.6px,225px);animation-timing-function:ease-in-out}58.036%{transform:translate(621.3px,225px);animation-timing-function:ease-in-out}59.643%{transform:translate(621.3px,225px);animation-timing-function:ease-in-out}64.107%{transform:translate(468.6px,225px);animation-timing-function:ease-in-out}65.714%{transform:translate(468.6px,225px);animation-timing-function:ease-in-out}70.179%{transform:translate(302.5px,225px);animation-timing-function:ease-in-out}71.786%{transform:translate(302.5px,225px);animation-timing-function:ease-in-out}76.250%{transform:translate(400.6px,225px);animation-timing-function:ease-in-out}77.857%{transform:translate(400.6px,225px);animation-timing-function:ease-in-out}82.321%{transform:translate(311.5px,225px);animation-timing-function:ease-in-out}83.929%{transform:translate(311.5px,225px);animation-timing-function:ease-in-out}97.500%{transform:translate(382px,225px);animation-timing-function:ease-in-out}100.000%{transform:translate(382px,225px);animation-timing-function:ease-in-out}}
@keyframes b0{0.000%{opacity:0;transform:translate(358.3px,225px)}4.250%{opacity:0;transform:translate(358.3px,225px)}4.286%{opacity:1;transform:translate(358.3px,225px)}4.633%{opacity:1;transform:translate(358.3px,188.0px)}4.669%{opacity:0;transform:translate(358.3px,188.0px)}100.000%{opacity:0}}
@keyframes e0{0.000%{opacity:0;transform:scale(.2)}4.598%{opacity:0;transform:scale(.2)}4.633%{opacity:1;transform:scale(.4)}5.348%{opacity:1;transform:scale(1)}6.419%{opacity:0;transform:scale(1.6)}100.000%{opacity:0}}
@keyframes b1{0.000%{opacity:0;transform:translate(513.5px,225px)}10.321%{opacity:0;transform:translate(513.5px,225px)}10.357%{opacity:1;transform:translate(513.5px,225px)}10.705%{opacity:1;transform:translate(513.5px,188.0px)}10.741%{opacity:0;transform:translate(513.5px,188.0px)}100.000%{opacity:0}}
@keyframes e1{0.000%{opacity:0;transform:scale(.2)}10.669%{opacity:0;transform:scale(.2)}10.705%{opacity:1;transform:scale(.4)}11.419%{opacity:1;transform:scale(1)}12.491%{opacity:0;transform:scale(1.6)}100.000%{opacity:0}}
@keyframes b2{0.000%{opacity:0;transform:translate(606.6px,225px)}16.393%{opacity:0;transform:translate(606.6px,225px)}16.429%{opacity:1;transform:translate(606.6px,225px)}16.776%{opacity:1;transform:translate(606.6px,188.0px)}16.812%{opacity:0;transform:translate(606.6px,188.0px)}100.000%{opacity:0}}
@keyframes e2{0.000%{opacity:0;transform:scale(.2)}16.741%{opacity:0;transform:scale(.2)}16.776%{opacity:1;transform:scale(.4)}17.491%{opacity:1;transform:scale(1)}18.562%{opacity:0;transform:scale(1.6)}100.000%{opacity:0}}
@keyframes b3{0.000%{opacity:0;transform:translate(692.5px,225px)}22.464%{opacity:0;transform:translate(692.5px,225px)}22.500%{opacity:1;transform:translate(692.5px,225px)}22.800%{opacity:1;transform:translate(692.5px,193.1px)}22.835%{opacity:0;transform:translate(692.5px,193.1px)}100.000%{opacity:0}}
@keyframes e3{0.000%{opacity:0;transform:scale(.2)}22.764%{opacity:0;transform:scale(.2)}22.800%{opacity:1;transform:scale(.4)}23.514%{opacity:1;transform:scale(1)}24.585%{opacity:0;transform:scale(1.6)}100.000%{opacity:0}}
@keyframes b4{0.000%{opacity:0;transform:translate(603.6px,225px)}28.536%{opacity:0;transform:translate(603.6px,225px)}28.571%{opacity:1;transform:translate(603.6px,225px)}29.164%{opacity:1;transform:translate(603.6px,162.0px)}29.199%{opacity:0;transform:translate(603.6px,162.0px)}100.000%{opacity:0}}
@keyframes e4{0.000%{opacity:0;transform:scale(.2)}29.128%{opacity:0;transform:scale(.2)}29.164%{opacity:1;transform:scale(.4)}29.878%{opacity:1;transform:scale(1)}30.949%{opacity:0;transform:scale(1.6)}100.000%{opacity:0}}
@keyframes b5{0.000%{opacity:0;transform:translate(451.9px,225px)}34.607%{opacity:0;transform:translate(451.9px,225px)}34.643%{opacity:1;transform:translate(451.9px,225px)}34.915%{opacity:1;transform:translate(451.9px,196.0px)}34.951%{opacity:0;transform:translate(451.9px,196.0px)}100.000%{opacity:0}}
@keyframes e5{0.000%{opacity:0;transform:scale(.2)}34.880%{opacity:0;transform:scale(.2)}34.915%{opacity:1;transform:scale(.4)}35.630%{opacity:1;transform:scale(1)}36.701%{opacity:0;transform:scale(1.6)}100.000%{opacity:0}}
@keyframes b6{0.000%{opacity:0;transform:translate(298.7px,225px)}40.679%{opacity:0;transform:translate(298.7px,225px)}40.714%{opacity:1;transform:translate(298.7px,225px)}40.987%{opacity:1;transform:translate(298.7px,196.0px)}41.023%{opacity:0;transform:translate(298.7px,196.0px)}100.000%{opacity:0}}
@keyframes e6{0.000%{opacity:0;transform:scale(.2)}40.951%{opacity:0;transform:scale(.2)}40.987%{opacity:1;transform:scale(.4)}41.701%{opacity:1;transform:scale(1)}42.773%{opacity:0;transform:scale(1.6)}100.000%{opacity:0}}
@keyframes b7{0.000%{opacity:0;transform:translate(396.5px,225px)}46.750%{opacity:0;transform:translate(396.5px,225px)}46.786%{opacity:1;transform:translate(396.5px,225px)}47.346%{opacity:1;transform:translate(396.5px,165.4px)}47.381%{opacity:0;transform:translate(396.5px,165.4px)}100.000%{opacity:0}}
@keyframes e7{0.000%{opacity:0;transform:scale(.2)}47.310%{opacity:0;transform:scale(.2)}47.346%{opacity:1;transform:scale(.4)}48.060%{opacity:1;transform:scale(1)}49.131%{opacity:0;transform:scale(1.6)}100.000%{opacity:0}}
@keyframes b8{0.000%{opacity:0;transform:translate(483.6px,225px)}52.821%{opacity:0;transform:translate(483.6px,225px)}52.857%{opacity:1;transform:translate(483.6px,225px)}53.374%{opacity:1;transform:translate(483.6px,170.0px)}53.410%{opacity:0;transform:translate(483.6px,170.0px)}100.000%{opacity:0}}
@keyframes e8{0.000%{opacity:0;transform:scale(.2)}53.338%{opacity:0;transform:scale(.2)}53.374%{opacity:1;transform:scale(.4)}54.088%{opacity:1;transform:scale(1)}55.160%{opacity:0;transform:scale(1.6)}100.000%{opacity:0}}
@keyframes b9{0.000%{opacity:0;transform:translate(639.3px,225px)}58.893%{opacity:0;transform:translate(639.3px,225px)}58.929%{opacity:1;transform:translate(639.3px,225px)}59.445%{opacity:1;transform:translate(639.3px,170.0px)}59.481%{opacity:0;transform:translate(639.3px,170.0px)}100.000%{opacity:0}}
@keyframes e9{0.000%{opacity:0;transform:scale(.2)}59.410%{opacity:0;transform:scale(.2)}59.445%{opacity:1;transform:scale(.4)}60.160%{opacity:1;transform:scale(1)}61.231%{opacity:0;transform:scale(1.6)}100.000%{opacity:0}}
@keyframes b10{0.000%{opacity:0;transform:translate(486.6px,225px)}64.964%{opacity:0;transform:translate(486.6px,225px)}65.000%{opacity:1;transform:translate(486.6px,225px)}65.836%{opacity:1;transform:translate(486.6px,136.0px)}65.872%{opacity:0;transform:translate(486.6px,136.0px)}100.000%{opacity:0}}
@keyframes e10{0.000%{opacity:0;transform:scale(.2)}65.801%{opacity:0;transform:scale(.2)}65.836%{opacity:1;transform:scale(.4)}66.551%{opacity:1;transform:scale(1)}67.622%{opacity:0;transform:scale(1.6)}100.000%{opacity:0}}
@keyframes b11{0.000%{opacity:0;transform:translate(320.5px,225px)}71.036%{opacity:0;transform:translate(320.5px,225px)}71.071%{opacity:1;transform:translate(320.5px,225px)}71.214%{opacity:1;transform:translate(320.5px,209.9px)}71.249%{opacity:0;transform:translate(320.5px,209.9px)}100.000%{opacity:0}}
@keyframes e11{0.000%{opacity:0;transform:scale(.2)}71.178%{opacity:0;transform:scale(.2)}71.214%{opacity:1;transform:scale(.4)}71.928%{opacity:1;transform:scale(1)}72.999%{opacity:0;transform:scale(1.6)}100.000%{opacity:0}}
@keyframes b12{0.000%{opacity:0;transform:translate(418.6px,225px)}77.107%{opacity:0;transform:translate(418.6px,225px)}77.143%{opacity:1;transform:translate(418.6px,225px)}77.585%{opacity:1;transform:translate(418.6px,178.0px)}77.620%{opacity:0;transform:translate(418.6px,178.0px)}100.000%{opacity:0}}
@keyframes e12{0.000%{opacity:0;transform:scale(.2)}77.549%{opacity:0;transform:scale(.2)}77.585%{opacity:1;transform:scale(.4)}78.299%{opacity:1;transform:scale(1)}79.370%{opacity:0;transform:scale(1.6)}100.000%{opacity:0}}
@keyframes b13{0.000%{opacity:0;transform:translate(329.5px,225px)}83.179%{opacity:0;transform:translate(329.5px,225px)}83.214%{opacity:1;transform:translate(329.5px,225px)}83.656%{opacity:1;transform:translate(329.5px,178.0px)}83.692%{opacity:0;transform:translate(329.5px,178.0px)}100.000%{opacity:0}}
@keyframes e13{0.000%{opacity:0;transform:scale(.2)}83.620%{opacity:0;transform:scale(.2)}83.656%{opacity:1;transform:scale(.4)}84.370%{opacity:1;transform:scale(1)}85.442%{opacity:0;transform:scale(1.6)}100.000%{opacity:0}}
@keyframes s0{0.000%{opacity:1}4.598%{opacity:1}4.633%{opacity:0}97.857%{opacity:0}97.893%{opacity:1}100.000%{opacity:1}}
@keyframes s1{0.000%{opacity:0}4.598%{opacity:0}4.633%{opacity:1}10.669%{opacity:1}10.705%{opacity:0}100.000%{opacity:0}}
@keyframes s2{0.000%{opacity:0}10.669%{opacity:0}10.705%{opacity:1}16.741%{opacity:1}16.776%{opacity:0}100.000%{opacity:0}}
@keyframes s3{0.000%{opacity:0}16.741%{opacity:0}16.776%{opacity:1}22.764%{opacity:1}22.800%{opacity:0}100.000%{opacity:0}}
@keyframes s4{0.000%{opacity:0}22.764%{opacity:0}22.800%{opacity:1}29.128%{opacity:1}29.164%{opacity:0}100.000%{opacity:0}}
@keyframes s5{0.000%{opacity:0}29.128%{opacity:0}29.164%{opacity:1}34.880%{opacity:1}34.915%{opacity:0}100.000%{opacity:0}}
@keyframes s6{0.000%{opacity:0}34.880%{opacity:0}34.915%{opacity:1}40.951%{opacity:1}40.987%{opacity:0}100.000%{opacity:0}}
@keyframes s7{0.000%{opacity:0}40.951%{opacity:0}40.987%{opacity:1}47.310%{opacity:1}47.346%{opacity:0}100.000%{opacity:0}}
@keyframes s8{0.000%{opacity:0}47.310%{opacity:0}47.346%{opacity:1}53.338%{opacity:1}53.374%{opacity:0}100.000%{opacity:0}}
@keyframes s9{0.000%{opacity:0}53.338%{opacity:0}53.374%{opacity:1}59.410%{opacity:1}59.445%{opacity:0}100.000%{opacity:0}}
@keyframes s10{0.000%{opacity:0}59.410%{opacity:0}59.445%{opacity:1}65.801%{opacity:1}65.836%{opacity:0}100.000%{opacity:0}}
@keyframes s11{0.000%{opacity:0}65.801%{opacity:0}65.836%{opacity:1}71.178%{opacity:1}71.214%{opacity:0}100.000%{opacity:0}}
@keyframes s12{0.000%{opacity:0}71.178%{opacity:0}71.214%{opacity:1}77.549%{opacity:1}77.585%{opacity:0}100.000%{opacity:0}}
@keyframes s13{0.000%{opacity:0}77.549%{opacity:0}77.585%{opacity:1}83.620%{opacity:1}83.656%{opacity:0}100.000%{opacity:0}}
@keyframes s14{0.000%{opacity:0}83.620%{opacity:0}83.656%{opacity:1}97.857%{opacity:1}97.893%{opacity:0}100.000%{opacity:0}}
</style>
<rect width="800" height="260" rx="14" fill="#0b0f1a"/>
<circle class="st" cx="248" cy="156" r="1.4" style="animation-delay:0.39s"/><circle class="st" cx="623" cy="126" r="1.4" style="animation-delay:1.74s"/><circle class="st" cx="625" cy="8" r="1" style="animation-delay:0.78s"/><circle class="st" cx="244" cy="54" r="1.4" style="animation-delay:1.41s"/><circle class="st" cx="567" cy="126" r="1" style="animation-delay:1.92s"/><circle class="st" cx="159" cy="64" r="1.4" style="animation-delay:0.45s"/><circle class="st" cx="540" cy="104" r="1.4" style="animation-delay:0.05s"/><circle class="st" cx="70" cy="45" r="1.4" style="animation-delay:0.13s"/><circle class="st" cx="36" cy="215" r="1" style="animation-delay:1.42s"/><circle class="st" cx="741" cy="240" r="1" style="animation-delay:2.14s"/><circle class="st" cx="442" cy="106" r="1.4" style="animation-delay:2.40s"/><circle class="st" cx="460" cy="251" r="0.8" style="animation-delay:2.64s"/><circle class="st" cx="104" cy="14" r="0.8" style="animation-delay:1.48s"/><circle class="st" cx="269" cy="252" r="1.4" style="animation-delay:1.31s"/><circle class="st" cx="646" cy="223" r="1" style="animation-delay:1.26s"/><circle class="st" cx="400" cy="151" r="1" style="animation-delay:1.60s"/><circle class="st" cx="422" cy="154" r="0.8" style="animation-delay:2.71s"/><circle class="st" cx="703" cy="239" r="0.8" style="animation-delay:2.57s"/><circle class="st" cx="625" cy="176" r="1.4" style="animation-delay:0.49s"/><circle class="st" cx="339" cy="251" r="1.4" style="animation-delay:2.71s"/><circle class="st" cx="587" cy="31" r="1.4" style="animation-delay:1.97s"/><circle class="st" cx="653" cy="217" r="1.4" style="animation-delay:0.80s"/><circle class="st" cx="132" cy="21" r="1" style="animation-delay:2.56s"/><circle class="st" cx="500" cy="27" r="1" style="animation-delay:2.40s"/><circle class="st" cx="425" cy="234" r="0.8" style="animation-delay:0.06s"/><circle class="st" cx="442" cy="201" r="1" style="animation-delay:2.62s"/><circle class="st" cx="50" cy="159" r="1.4" style="animation-delay:2.28s"/><circle class="st" cx="391" cy="188" r="1.4" style="animation-delay:0.99s"/><circle class="st" cx="290" cy="134" r="0.8" style="animation-delay:3.00s"/><circle class="st" cx="322" cy="6" r="0.8" style="animation-delay:0.32s"/><circle class="st" cx="553" cy="13" r="0.8" style="animation-delay:2.91s"/><circle class="st" cx="303" cy="161" r="1" style="animation-delay:0.47s"/><circle class="st" cx="48" cy="255" r="1" style="animation-delay:0.94s"/><circle class="st" cx="146" cy="234" r="1" style="animation-delay:1.13s"/><circle class="st" cx="537" cy="103" r="1.4" style="animation-delay:2.60s"/><circle class="st" cx="702" cy="148" r="0.8" style="animation-delay:1.86s"/><circle class="st" cx="524" cy="74" r="1" style="animation-delay:1.90s"/><circle class="st" cx="737" cy="65" r="1" style="animation-delay:1.31s"/><circle class="st" cx="269" cy="138" r="1" style="animation-delay:1.65s"/><circle class="st" cx="16" cy="206" r="1" style="animation-delay:2.96s"/><circle class="st" cx="327" cy="10" r="1" style="animation-delay:1.85s"/><circle class="st" cx="652" cy="39" r="0.8" style="animation-delay:1.90s"/><circle class="st" cx="345" cy="124" r="1" style="animation-delay:2.04s"/><circle class="st" cx="366" cy="160" r="1.4" style="animation-delay:0.84s"/><circle class="st" cx="506" cy="10" r="1.4" style="animation-delay:0.18s"/><circle class="st" cx="697" cy="10" r="1" style="animation-delay:0.75s"/><circle class="st" cx="472" cy="81" r="1.4" style="animation-delay:1.80s"/><circle class="st" cx="186" cy="98" r="0.8" style="animation-delay:0.94s"/><circle class="st" cx="383" cy="221" r="1.4" style="animation-delay:0.79s"/><circle class="st" cx="391" cy="31" r="0.8" style="animation-delay:2.91s"/><circle class="st" cx="705" cy="193" r="0.8" style="animation-delay:0.93s"/><circle class="st" cx="232" cy="172" r="1" style="animation-delay:0.72s"/><circle class="st" cx="196" cy="178" r="1" style="animation-delay:1.95s"/><circle class="st" cx="104" cy="31" r="1.4" style="animation-delay:0.97s"/><circle class="st" cx="346" cy="177" r="0.8" style="animation-delay:1.32s"/><circle class="st" cx="178" cy="25" r="1" style="animation-delay:2.23s"/><circle class="st" cx="228" cy="231" r="1.4" style="animation-delay:1.35s"/><circle class="st" cx="235" cy="206" r="0.8" style="animation-delay:0.10s"/><circle class="st" cx="200" cy="85" r="1.4" style="animation-delay:0.55s"/><circle class="st" cx="290" cy="92" r="1.4" style="animation-delay:0.26s"/><circle class="st" cx="639" cy="93" r="1.4" style="animation-delay:0.39s"/><circle class="st" cx="303" cy="137" r="1" style="animation-delay:1.39s"/><circle class="st" cx="654" cy="111" r="1" style="animation-delay:1.26s"/><circle class="st" cx="424" cy="14" r="1" style="animation-delay:0.47s"/><circle class="st" cx="9" cy="127" r="1.4" style="animation-delay:2.96s"/><circle class="st" cx="449" cy="148" r="1.4" style="animation-delay:0.67s"/><circle class="st" cx="768" cy="121" r="1.4" style="animation-delay:2.24s"/><circle class="st" cx="300" cy="144" r="1" style="animation-delay:2.67s"/><circle class="st" cx="74" cy="224" r="1.4" style="animation-delay:2.91s"/><circle class="st" cx="127" cy="212" r="0.8" style="animation-delay:0.14s"/>
<text x="24" y="28" fill="#fff" font-size="14">SCORE</text>
<text x="78" y="28" fill="#06d6a0" font-size="14" style="animation:s0 28.0s linear infinite">00000</text>
<text x="78" y="28" fill="#06d6a0" font-size="14" style="animation:s1 28.0s linear infinite">00100</text>
<text x="78" y="28" fill="#06d6a0" font-size="14" style="animation:s2 28.0s linear infinite">00200</text>
<text x="78" y="28" fill="#06d6a0" font-size="14" style="animation:s3 28.0s linear infinite">00300</text>
<text x="78" y="28" fill="#06d6a0" font-size="14" style="animation:s4 28.0s linear infinite">00400</text>
<text x="78" y="28" fill="#06d6a0" font-size="14" style="animation:s5 28.0s linear infinite">00500</text>
<text x="78" y="28" fill="#06d6a0" font-size="14" style="animation:s6 28.0s linear infinite">00600</text>
<text x="78" y="28" fill="#06d6a0" font-size="14" style="animation:s7 28.0s linear infinite">00700</text>
<text x="78" y="28" fill="#06d6a0" font-size="14" style="animation:s8 28.0s linear infinite">00800</text>
<text x="78" y="28" fill="#06d6a0" font-size="14" style="animation:s9 28.0s linear infinite">00900</text>
<text x="78" y="28" fill="#06d6a0" font-size="14" style="animation:s10 28.0s linear infinite">01000</text>
<text x="78" y="28" fill="#06d6a0" font-size="14" style="animation:s11 28.0s linear infinite">01100</text>
<text x="78" y="28" fill="#06d6a0" font-size="14" style="animation:s12 28.0s linear infinite">01200</text>
<text x="78" y="28" fill="#06d6a0" font-size="14" style="animation:s13 28.0s linear infinite">01300</text>
<text x="78" y="28" fill="#06d6a0" font-size="14" style="animation:s14 28.0s linear infinite">01400</text>
<text x="400.0" y="28" fill="#ffd166" font-size="14" text-anchor="middle">HI-SCORE 01400</text>
<text x="776" y="28" fill="#fff" font-size="14" text-anchor="end">LIVES ♥ ♥ ♥</text>
<g class="fleet">
<g transform="translate(70,62)" fill="#ff4d6d"><use class="fa" href="#fa"/><use class="fb" href="#fb"/></g>
<g transform="translate(132,62)" fill="#ff4d6d"><use class="fa" href="#fa"/><use class="fb" href="#fb"/></g>
<g transform="translate(194,62)" fill="#ff4d6d"><use class="fa" href="#fa"/><use class="fb" href="#fb"/></g>
<g transform="translate(256,62)" fill="#ff4d6d"><use class="fa" href="#fa"/><use class="fb" href="#fb"/></g>
<g transform="translate(318,62)" fill="#ff4d6d"><use class="fa" href="#fa"/><use class="fb" href="#fb"/></g>
<g transform="translate(380,62)" fill="#ff4d6d"><use class="fa" href="#fa"/><use class="fb" href="#fb"/></g>
<g transform="translate(442,62)" fill="#ff4d6d"><use class="fa" href="#fa"/><use class="fb" href="#fb"/></g>
<g transform="translate(504,62)" fill="#ff4d6d"><use class="fa" href="#fa"/><use class="fb" href="#fb"/></g>
<g transform="translate(566,62)" fill="#ff4d6d"><use class="fa" href="#fa"/><use class="fb" href="#fb"/></g>
<g transform="translate(70,96)" fill="#ffd166"><use class="fa" href="#fa"/><use class="fb" href="#fb"/></g>
<g transform="translate(132,96)" fill="#ffd166"><use class="fa" href="#fa"/><use class="fb" href="#fb"/></g>
<g transform="translate(194,96)" fill="#ffd166"><use class="fa" href="#fa"/><use class="fb" href="#fb"/></g>
<g transform="translate(256,96)" fill="#ffd166"><use class="fa" href="#fa"/><use class="fb" href="#fb"/></g>
<g transform="translate(318,96)" fill="#ffd166"><use class="fa" href="#fa"/><use class="fb" href="#fb"/></g>
<g transform="translate(380,96)" fill="#ffd166" style="animation:k1_5 28.0s linear infinite"><use class="fa" href="#fa"/><use class="fb" href="#fb"/></g>
<g transform="translate(442,96)" fill="#ffd166"><use class="fa" href="#fa"/><use class="fb" href="#fb"/></g>
<g transform="translate(504,96)" fill="#ffd166"><use class="fa" href="#fa"/><use class="fb" href="#fb"/></g>
<g transform="translate(566,96)" fill="#ffd166"><use class="fa" href="#fa"/><use class="fb" href="#fb"/></g>
<g transform="translate(70,130)" fill="#06d6a0"><use class="fa" href="#fa"/><use class="fb" href="#fb"/></g>
<g transform="translate(132,130)" fill="#06d6a0"><use class="fa" href="#fa"/><use class="fb" href="#fb"/></g>
<g transform="translate(194,130)" fill="#06d6a0"><use class="fa" href="#fa"/><use class="fb" href="#fb"/></g>
<g transform="translate(256,130)" fill="#06d6a0" style="animation:k2_3 28.0s linear infinite"><use class="fa" href="#fa"/><use class="fb" href="#fb"/></g>
<g transform="translate(318,130)" fill="#06d6a0" style="animation:k2_4 28.0s linear infinite"><use class="fa" href="#fa"/><use class="fb" href="#fb"/></g>
<g transform="translate(380,130)" fill="#06d6a0" style="animation:k2_5 28.0s linear infinite"><use class="fa" href="#fa"/><use class="fb" href="#fb"/></g>
<g transform="translate(442,130)" fill="#06d6a0" style="animation:k2_6 28.0s linear infinite"><use class="fa" href="#fa"/><use class="fb" href="#fb"/></g>
<g transform="translate(504,130)" fill="#06d6a0" style="animation:k2_7 28.0s linear infinite"><use class="fa" href="#fa"/><use class="fb" href="#fb"/></g>
<g transform="translate(566,130)" fill="#06d6a0" style="animation:k2_8 28.0s linear infinite"><use class="fa" href="#fa"/><use class="fb" href="#fb"/></g>
<g transform="translate(70,164)" fill="#4cc9f0"><use class="fa" href="#fa"/><use class="fb" href="#fb"/></g>
<g transform="translate(132,164)" fill="#4cc9f0"><use class="fa" href="#fa"/><use class="fb" href="#fb"/></g>
<g transform="translate(194,164)" fill="#4cc9f0" style="animation:k3_2 28.0s linear infinite"><use class="fa" href="#fa"/><use class="fb" href="#fb"/></g>
<g transform="translate(256,164)" fill="#4cc9f0" style="animation:k3_3 28.0s linear infinite"><use class="fa" href="#fa"/><use class="fb" href="#fb"/></g>
<g transform="translate(318,164)" fill="#4cc9f0" style="animation:k3_4 28.0s linear infinite"><use class="fa" href="#fa"/><use class="fb" href="#fb"/></g>
<g transform="translate(380,164)" fill="#4cc9f0" style="animation:k3_5 28.0s linear infinite"><use class="fa" href="#fa"/><use class="fb" href="#fb"/></g>
<g transform="translate(442,164)" fill="#4cc9f0" style="animation:k3_6 28.0s linear infinite"><use class="fa" href="#fa"/><use class="fb" href="#fb"/></g>
<g transform="translate(504,164)" fill="#4cc9f0" style="animation:k3_7 28.0s linear infinite"><use class="fa" href="#fa"/><use class="fb" href="#fb"/></g>
<g transform="translate(566,164)" fill="#4cc9f0" style="animation:k3_8 28.0s linear infinite"><use class="fa" href="#fa"/><use class="fb" href="#fb"/></g>
</g>
<line x1="0" y1="250" x2="800" y2="250" stroke="#06d6a0" stroke-opacity=".5"/>
<rect x="-1.5" y="0" width="3" height="10" fill="#fff" style="animation:b0 28.0s linear infinite"/>
<rect x="-1.5" y="0" width="3" height="10" fill="#fff" style="animation:b1 28.0s linear infinite"/>
<rect x="-1.5" y="0" width="3" height="10" fill="#fff" style="animation:b2 28.0s linear infinite"/>
<rect x="-1.5" y="0" width="3" height="10" fill="#fff" style="animation:b3 28.0s linear infinite"/>
<rect x="-1.5" y="0" width="3" height="10" fill="#fff" style="animation:b4 28.0s linear infinite"/>
<rect x="-1.5" y="0" width="3" height="10" fill="#fff" style="animation:b5 28.0s linear infinite"/>
<rect x="-1.5" y="0" width="3" height="10" fill="#fff" style="animation:b6 28.0s linear infinite"/>
<rect x="-1.5" y="0" width="3" height="10" fill="#fff" style="animation:b7 28.0s linear infinite"/>
<rect x="-1.5" y="0" width="3" height="10" fill="#fff" style="animation:b8 28.0s linear infinite"/>
<rect x="-1.5" y="0" width="3" height="10" fill="#fff" style="animation:b9 28.0s linear infinite"/>
<rect x="-1.5" y="0" width="3" height="10" fill="#fff" style="animation:b10 28.0s linear infinite"/>
<rect x="-1.5" y="0" width="3" height="10" fill="#fff" style="animation:b11 28.0s linear infinite"/>
<rect x="-1.5" y="0" width="3" height="10" fill="#fff" style="animation:b12 28.0s linear infinite"/>
<rect x="-1.5" y="0" width="3" height="10" fill="#fff" style="animation:b13 28.0s linear infinite"/>
<g transform="translate(358.3,176.0)"><g fill="#4cc9f0" style="animation:e0 28.0s linear infinite"><rect x="-13" y="-2" width="4" height="4"/><rect x="9" y="-2" width="4" height="4"/><rect x="-2" y="-11" width="4" height="4"/><rect x="-2" y="7" width="4" height="4"/><rect x="-10" y="-9" width="4" height="4"/><rect x="6" y="-9" width="4" height="4"/><rect x="-10" y="5" width="4" height="4"/><rect x="6" y="5" width="4" height="4"/><rect x="-18" y="-5" width="4" height="4"/><rect x="14" y="1" width="4" height="4"/><rect x="-5" y="-16" width="4" height="4"/><rect x="1" y="11" width="4" height="4"/><rect x="-4" y="-4" width="8" height="8" fill="#fff"/></g></g>
<g transform="translate(513.5,176.0)"><g fill="#4cc9f0" style="animation:e1 28.0s linear infinite"><rect x="-13" y="-2" width="4" height="4"/><rect x="9" y="-2" width="4" height="4"/><rect x="-2" y="-11" width="4" height="4"/><rect x="-2" y="7" width="4" height="4"/><rect x="-10" y="-9" width="4" height="4"/><rect x="6" y="-9" width="4" height="4"/><rect x="-10" y="5" width="4" height="4"/><rect x="6" y="5" width="4" height="4"/><rect x="-18" y="-5" width="4" height="4"/><rect x="14" y="1" width="4" height="4"/><rect x="-5" y="-16" width="4" height="4"/><rect x="1" y="11" width="4" height="4"/><rect x="-4" y="-4" width="8" height="8" fill="#fff"/></g></g>
<g transform="translate(606.6,176.0)"><g fill="#4cc9f0" style="animation:e2 28.0s linear infinite"><rect x="-13" y="-2" width="4" height="4"/><rect x="9" y="-2" width="4" height="4"/><rect x="-2" y="-11" width="4" height="4"/><rect x="-2" y="7" width="4" height="4"/><rect x="-10" y="-9" width="4" height="4"/><rect x="6" y="-9" width="4" height="4"/><rect x="-10" y="5" width="4" height="4"/><rect x="6" y="5" width="4" height="4"/><rect x="-18" y="-5" width="4" height="4"/><rect x="14" y="1" width="4" height="4"/><rect x="-5" y="-16" width="4" height="4"/><rect x="1" y="11" width="4" height="4"/><rect x="-4" y="-4" width="8" height="8" fill="#fff"/></g></g>
<g transform="translate(692.5,181.1)"><g fill="#4cc9f0" style="animation:e3 28.0s linear infinite"><rect x="-13" y="-2" width="4" height="4"/><rect x="9" y="-2" width="4" height="4"/><rect x="-2" y="-11" width="4" height="4"/><rect x="-2" y="7" width="4" height="4"/><rect x="-10" y="-9" width="4" height="4"/><rect x="6" y="-9" width="4" height="4"/><rect x="-10" y="5" width="4" height="4"/><rect x="6" y="5" width="4" height="4"/><rect x="-18" y="-5" width="4" height="4"/><rect x="14" y="1" width="4" height="4"/><rect x="-5" y="-16" width="4" height="4"/><rect x="1" y="11" width="4" height="4"/><rect x="-4" y="-4" width="8" height="8" fill="#fff"/></g></g>
<g transform="translate(603.6,150.0)"><g fill="#06d6a0" style="animation:e4 28.0s linear infinite"><rect x="-13" y="-2" width="4" height="4"/><rect x="9" y="-2" width="4" height="4"/><rect x="-2" y="-11" width="4" height="4"/><rect x="-2" y="7" width="4" height="4"/><rect x="-10" y="-9" width="4" height="4"/><rect x="6" y="-9" width="4" height="4"/><rect x="-10" y="5" width="4" height="4"/><rect x="6" y="5" width="4" height="4"/><rect x="-18" y="-5" width="4" height="4"/><rect x="14" y="1" width="4" height="4"/><rect x="-5" y="-16" width="4" height="4"/><rect x="1" y="11" width="4" height="4"/><rect x="-4" y="-4" width="8" height="8" fill="#fff"/></g></g>
<g transform="translate(451.9,184.0)"><g fill="#4cc9f0" style="animation:e5 28.0s linear infinite"><rect x="-13" y="-2" width="4" height="4"/><rect x="9" y="-2" width="4" height="4"/><rect x="-2" y="-11" width="4" height="4"/><rect x="-2" y="7" width="4" height="4"/><rect x="-10" y="-9" width="4" height="4"/><rect x="6" y="-9" width="4" height="4"/><rect x="-10" y="5" width="4" height="4"/><rect x="6" y="5" width="4" height="4"/><rect x="-18" y="-5" width="4" height="4"/><rect x="14" y="1" width="4" height="4"/><rect x="-5" y="-16" width="4" height="4"/><rect x="1" y="11" width="4" height="4"/><rect x="-4" y="-4" width="8" height="8" fill="#fff"/></g></g>
<g transform="translate(298.7,184.0)"><g fill="#4cc9f0" style="animation:e6 28.0s linear infinite"><rect x="-13" y="-2" width="4" height="4"/><rect x="9" y="-2" width="4" height="4"/><rect x="-2" y="-11" width="4" height="4"/><rect x="-2" y="7" width="4" height="4"/><rect x="-10" y="-9" width="4" height="4"/><rect x="6" y="-9" width="4" height="4"/><rect x="-10" y="5" width="4" height="4"/><rect x="6" y="5" width="4" height="4"/><rect x="-18" y="-5" width="4" height="4"/><rect x="14" y="1" width="4" height="4"/><rect x="-5" y="-16" width="4" height="4"/><rect x="1" y="11" width="4" height="4"/><rect x="-4" y="-4" width="8" height="8" fill="#fff"/></g></g>
<g transform="translate(396.5,153.4)"><g fill="#06d6a0" style="animation:e7 28.0s linear infinite"><rect x="-13" y="-2" width="4" height="4"/><rect x="9" y="-2" width="4" height="4"/><rect x="-2" y="-11" width="4" height="4"/><rect x="-2" y="7" width="4" height="4"/><rect x="-10" y="-9" width="4" height="4"/><rect x="6" y="-9" width="4" height="4"/><rect x="-10" y="5" width="4" height="4"/><rect x="6" y="5" width="4" height="4"/><rect x="-18" y="-5" width="4" height="4"/><rect x="14" y="1" width="4" height="4"/><rect x="-5" y="-16" width="4" height="4"/><rect x="1" y="11" width="4" height="4"/><rect x="-4" y="-4" width="8" height="8" fill="#fff"/></g></g>
<g transform="translate(483.6,158.0)"><g fill="#06d6a0" style="animation:e8 28.0s linear infinite"><rect x="-13" y="-2" width="4" height="4"/><rect x="9" y="-2" width="4" height="4"/><rect x="-2" y="-11" width="4" height="4"/><rect x="-2" y="7" width="4" height="4"/><rect x="-10" y="-9" width="4" height="4"/><rect x="6" y="-9" width="4" height="4"/><rect x="-10" y="5" width="4" height="4"/><rect x="6" y="5" width="4" height="4"/><rect x="-18" y="-5" width="4" height="4"/><rect x="14" y="1" width="4" height="4"/><rect x="-5" y="-16" width="4" height="4"/><rect x="1" y="11" width="4" height="4"/><rect x="-4" y="-4" width="8" height="8" fill="#fff"/></g></g>
<g transform="translate(639.3,158.0)"><g fill="#06d6a0" style="animation:e9 28.0s linear infinite"><rect x="-13" y="-2" width="4" height="4"/><rect x="9" y="-2" width="4" height="4"/><rect x="-2" y="-11" width="4" height="4"/><rect x="-2" y="7" width="4" height="4"/><rect x="-10" y="-9" width="4" height="4"/><rect x="6" y="-9" width="4" height="4"/><rect x="-10" y="5" width="4" height="4"/><rect x="6" y="5" width="4" height="4"/><rect x="-18" y="-5" width="4" height="4"/><rect x="14" y="1" width="4" height="4"/><rect x="-5" y="-16" width="4" height="4"/><rect x="1" y="11" width="4" height="4"/><rect x="-4" y="-4" width="8" height="8" fill="#fff"/></g></g>
<g transform="translate(486.6,124.0)"><g fill="#ffd166" style="animation:e10 28.0s linear infinite"><rect x="-13" y="-2" width="4" height="4"/><rect x="9" y="-2" width="4" height="4"/><rect x="-2" y="-11" width="4" height="4"/><rect x="-2" y="7" width="4" height="4"/><rect x="-10" y="-9" width="4" height="4"/><rect x="6" y="-9" width="4" height="4"/><rect x="-10" y="5" width="4" height="4"/><rect x="6" y="5" width="4" height="4"/><rect x="-18" y="-5" width="4" height="4"/><rect x="14" y="1" width="4" height="4"/><rect x="-5" y="-16" width="4" height="4"/><rect x="1" y="11" width="4" height="4"/><rect x="-4" y="-4" width="8" height="8" fill="#fff"/></g></g>
<g transform="translate(320.5,197.9)"><g fill="#4cc9f0" style="animation:e11 28.0s linear infinite"><rect x="-13" y="-2" width="4" height="4"/><rect x="9" y="-2" width="4" height="4"/><rect x="-2" y="-11" width="4" height="4"/><rect x="-2" y="7" width="4" height="4"/><rect x="-10" y="-9" width="4" height="4"/><rect x="6" y="-9" width="4" height="4"/><rect x="-10" y="5" width="4" height="4"/><rect x="6" y="5" width="4" height="4"/><rect x="-18" y="-5" width="4" height="4"/><rect x="14" y="1" width="4" height="4"/><rect x="-5" y="-16" width="4" height="4"/><rect x="1" y="11" width="4" height="4"/><rect x="-4" y="-4" width="8" height="8" fill="#fff"/></g></g>
<g transform="translate(418.6,166.0)"><g fill="#06d6a0" style="animation:e12 28.0s linear infinite"><rect x="-13" y="-2" width="4" height="4"/><rect x="9" y="-2" width="4" height="4"/><rect x="-2" y="-11" width="4" height="4"/><rect x="-2" y="7" width="4" height="4"/><rect x="-10" y="-9" width="4" height="4"/><rect x="6" y="-9" width="4" height="4"/><rect x="-10" y="5" width="4" height="4"/><rect x="6" y="5" width="4" height="4"/><rect x="-18" y="-5" width="4" height="4"/><rect x="14" y="1" width="4" height="4"/><rect x="-5" y="-16" width="4" height="4"/><rect x="1" y="11" width="4" height="4"/><rect x="-4" y="-4" width="8" height="8" fill="#fff"/></g></g>
<g transform="translate(329.5,166.0)"><g fill="#06d6a0" style="animation:e13 28.0s linear infinite"><rect x="-13" y="-2" width="4" height="4"/><rect x="9" y="-2" width="4" height="4"/><rect x="-2" y="-11" width="4" height="4"/><rect x="-2" y="7" width="4" height="4"/><rect x="-10" y="-9" width="4" height="4"/><rect x="6" y="-9" width="4" height="4"/><rect x="-10" y="5" width="4" height="4"/><rect x="6" y="5" width="4" height="4"/><rect x="-18" y="-5" width="4" height="4"/><rect x="14" y="1" width="4" height="4"/><rect x="-5" y="-16" width="4" height="4"/><rect x="1" y="11" width="4" height="4"/><rect x="-4" y="-4" width="8" height="8" fill="#fff"/></g></g>
<g class="player"><path d="M0 12h36v-6h-12v-6h-12v6h-12z" fill="#4cc9f0"/><rect x="16" y="-3" width="4" height="3" fill="#4cc9f0"/></g>
<text x="400.0" y="256" fill="#ffd166" font-size="11" text-anchor="middle" opacity=".8">SOURCREAM206 · PLAYER 1</text>
</svg>
